{"accessors":[{"bufferView":2,"componentType":5126,"count":18,"max":[73.43777465820312,64.49019622802734,19.126426696777344],"min":[73.28907775878906,52.31294631958008,8.389717102050781],"type":"VEC3"},{"bufferView":2,"byteOffset":216,"componentType":5126,"count":18,"max":[1,0.7511671185493469,0.6601120829582214],"min":[-0.8133347034454346,-0.7511671185493469,-0.7511671185493469],"type":"VEC3"},{"bufferView":1,"componentType":5126,"count":18,"max":[0.875,1],"min":[0.125,0],"type":"VEC2"},{"bufferView":0,"componentType":5125,"count":24,"type":"SCALAR"},{"bufferView":2,"byteOffset":432,"componentType":5126,"count":18,"max":[73.43630981445312,64.23108673095703,18.77102279663086],"min":[73.31554412841797,64.0232162475586,2.742586135864258],"type":"VEC3"},{"bufferView":2,"byteOffset":648,"componentType":5126,"count":18,"max":[0.9849696159362793,0.17271293699741364,1],"min":[-0.9999868869781494,-1,-1],"type":"VEC3"},{"bufferView":1,"byteOffset":144,"componentType":5126,"count":18,"max":[0.875,1],"min":[0.125,0],"type":"VEC2"},{"bufferView":0,"byteOffset":96,"componentType":5125,"count":24,"type":"SCALAR"},{"bufferView":2,"byteOffset":864,"componentType":5126,"count":258,"max":[93.87247467041016,70.6417236328125,62.77253723144531],"min":[22.935302734375,10.694828033447266,6.005413055419922],"type":"VEC3"},{"bufferView":2,"byteOffset":3960,"componentType":5126,"count":258,"max":[0.9914820194244385,0.9953421354293823,1],"min":[-0.9739991426467896,-0.9995938539505005,0],"type":"VEC3"},{"bufferView":1,"byteOffset":288,"componentType":5126,"count":258,"max":[0.875,0.75],"min":[0.125,0],"type":"VEC2"},{"bufferView":0,"byteOffset":192,"componentType":5125,"count":720,"type":"SCALAR"},{"bufferView":2,"byteOffset":7056,"componentType":5126,"count":34,"max":[56.055572509765625,56.47321701049805,18.69120979309082],"min":[51.43895721435547,56.09281539916992,17.858135223388672],"type":"VEC3"},{"bufferView":2,"byteOffset":7464,"componentType":5126,"count":34,"max":[0.9732663631439209,0.9826592206954956,0.8901033997535706],"min":[-0.9778301119804382,0.2094000279903412,-0.8842597007751465],"type":"VEC3"},{"bufferView":1,"byteOffset":2352,"componentType":5126,"count":34,"max":[0.16101300716400146,0.9770140051841736],"min":[0.0279690008610487,0.8195499777793884],"type":"VEC2"},{"bufferView":0,"byteOffset":3072,"componentType":5125,"count":144,"type":"SCALAR"},{"bufferView":2,"byteOffset":7872,"componentType":5126,"count":153,"max":[58.82388687133789,56.89097213745117,21.9239444732666],"min":[48.674713134765625,47.14990997314453,10.540079116821289],"type":"VEC3"},{"bufferView":2,"byteOffset":9708,"componentType":5126,"count":153,"max":[0.9998215436935425,0.9998998641967773,0.977020263671875],"min":[-0.9998215436935425,-0.9982790946960449,-0.9302541017532349],"type":"VEC3"},{"bufferView":1,"byteOffset":2624,"componentType":5126,"count":153,"max":[0.9861840009689331,0.9866120219230652],"min":[0.03080900013446808,0.00043799998820759356],"type":"VEC2"},{"bufferView":0,"byteOffset":3648,"componentType":5125,"count":501,"type":"SCALAR"},{"bufferView":2,"byteOffset":11544,"componentType":5126,"count":138,"max":[56.12510681152344,57.322105407714844,18.463211059570312],"min":[51.432395935058594,55.45592498779297,10.346170425415039],"type":"VEC3"},{"bufferView":2,"byteOffset":13200,"componentType":5126,"count":138,"max":[0.9997902512550354,0.9998166561126709,0.9996992349624634],"min":[-0.9999892115592957,-0.22675900161266327,-0.8929120898246765],"type":"VEC3"},{"bufferView":1,"byteOffset":3848,"componentType":5126,"count":138,"max":[0.4527519941329956,0.9894570112228394],"min":[0.159961998462677,0.6187589764595032],"type":"VEC2"},{"bufferView":0,"byteOffset":5652,"componentType":5125,"count":462,"type":"SCALAR"},{"bufferView":2,"byteOffset":14856,"componentType":5126,"count":193,"max":[58.50051498413086,56.906524658203125,23.075172424316406],"min":[49.21173858642578,46.185882568359375,16.648548126220703],"type":"VEC3"},{"bufferView":2,"byteOffset":17172,"componentType":5126,"count":193,"max":[1,0.9767492413520813,0.999825119972229],"min":[-1,-0.9996790289878845,-0.9969737529754639],"type":"VEC3"},{"bufferView":1,"byteOffset":4952,"componentType":5126,"count":193,"max":[0.9818630218505859,0.9541460275650024],"min":[0.0018060000147670507,0.0019920000340789557],"type":"VEC2"},{"bufferView":0,"byteOffset":7500,"componentType":5125,"count":696,"type":"SCALAR"},{"bufferView":2,"byteOffset":19488,"componentType":5126,"count":105,"max":[107.92362976074219,105.3281021118164,10.523300170898438],"min":[0,0,0],"type":"VEC3"},{"bufferView":2,"byteOffset":20748,"componentType":5126,"count":105,"max":[1,1,1],"min":[-1,-1,-1],"type":"VEC3"},{"bufferView":1,"byteOffset":6496,"componentType":5126,"count":105,"max":[0.8828060030937195,0.9877820014953613],"min":[0.019071999937295914,0.019997000694274902],"type":"VEC2"},{"bufferView":0,"byteOffset":10284,"componentType":5125,"count":360,"type":"SCALAR"}],"asset":{"extras":{"author":"Kaye (https://sketchfab.com/ohkaye)","license":"CC-BY-4.0 (http://creativecommons.org/licenses/by/4.0/)","source":"https://sketchfab.com/3d-models/lonely-little-penguin-9d36d4a2b0394f27a5c3a65e1fff6000","title":"Lonely Little Penguin"},"generator":"Sketchfab-12.67.0","version":"2.0"},"bufferViews":[{"buffer":0,"byteLength":11724,"name":"floatBufferViews","target":34963},{"buffer":0,"byteLength":7336,"byteOffset":11724,"byteStride":8,"name":"floatBufferViews","target":34962},{"buffer":0,"byteLength":22008,"byteOffset":19060,"byteStride":12,"name":"floatBufferViews","target":34962}],"buffers":[{"byteLength":41068,"uri":"data:application/octet-stream;base64,"}],"extensionsUsed":["KHR_materials_unlit"],"images":[{"uri":"data:application/octet-stream;base64,"},{"uri":"data:application/octet-stream;base64,"},{"uri":"data:application/octet-stream;base64,"}],"materials":[{"doubleSided":true,"extensions":{"KHR_materials_unlit":{}},"name":"rampShader1SG","pbrMetallicRoughness":{"baseColorFactor":[0.8014945267390895,1,0.9832467958926836,1],"metallicFactor":0}},{"doubleSided":true,"extensions":{"KHR_materials_unlit":{}},"name":"rampShader5SG","pbrMetallicRoughness":{"baseColorTexture":{"index":0},"metallicFactor":0}},{"doubleSided":true,"extensions":{"KHR_materials_unlit":{}},"name":"surfaceShader2SG","pbrMetallicRoughness":{"baseColorTexture":{"index":0},"metallicFactor":0}},{"doubleSided":true,"extensions":{"KHR_materials_unlit":{}},"name":"surfaceShader3SG","pbrMetallicRoughness":{"baseColorTexture":{"index":0},"metallicFactor":0}},{"doubleSided":true,"extensions":{"KHR_materials_unlit":{}},"name":"surfaceShader4SG","pbrMetallicRoughness":{"baseColorTexture":{"index":1},"metallicFactor":0}},{"doubleSided":true,"extensions":{"KHR_materials_unlit":{}},"name":"surfaceShader7SG","pbrMetallicRoughness":{"baseColorTexture":{"index":2},"metallicFactor":0}},{"doubleSided":true,"extensions":{"KHR_materials_unlit":{}},"name":"surfaceShader8SG","pbrMetallicRoughness":{"baseColorFactor":[0.2618891781927143,0.0828885356917697,0.0022548805434601587,1],"metallicFactor":0}},{"doubleSided":true,"extensions":{"KHR_materials_unlit":{}},"name":"surfaceShader9SG","pbrMetallicRoughness":{"baseColorFactor":[0,0,0,1],"metallicFactor":0}}],"meshes":[{"name":"Object_0","primitives":[{"attributes":{"NORMAL":1,"POSITION":0,"TEXCOORD_0":2},"indices":3,"material":6,"mode":4}]},{"name":"Object_1","primitives":[{"attributes":{"NORMAL":5,"POSITION":4,"TEXCOORD_0":6},"indices":7,"material":7,"mode":4}]},{"name":"Object_2","primitives":[{"attributes":{"NORMAL":9,"POSITION":8,"TEXCOORD_0":10},"indices":11,"material":0,"mode":4}]},{"name":"Object_3","primitives":[{"attributes":{"NORMAL":13,"POSITION":12,"TEXCOORD_0":14},"indices":15,"material":1,"mode":4}]},{"name":"Object_4","primitives":[{"attributes":{"NORMAL":17,"POSITION":16,"TEXCOORD_0":18},"indices":19,"material":2,"mode":4}]},{"name":"Object_5","primitives":[{"attributes":{"NORMAL":21,"POSITION":20,"TEXCOORD_0":22},"indices":23,"material":3,"mode":4}]},{"name":"Object_6","primitives":[{"attributes":{"NORMAL":25,"POSITION":24,"TEXCOORD_0":26},"indices":27,"material":4,"mode":4}]},{"name":"Object_7","primitives":[{"attributes":{"NORMAL":29,"POSITION":28,"TEXCOORD_0":30},"indices":31,"material":5,"mode":4}]}],"nodes":[{"children":[1],"matrix":[2.220446049250313e-16,-8.881784197001252e-16,1,0,1,6.661338147750939e-16,-2.2204460492503116e-16,0,-6.661338147750939e-16,1,8.881784197001252e-16,0,-0.02710483968257904,1.1210445322708203e-16,-0.5048735737800598,1],"name":"Sketchfab_model"},{"children":[2],"matrix":[1,0,0,0,0,1,0,0,0,0,1,0,-53.722923278808594,-52.39808654785156,-14.46642780303955,1],"name":"Penguin_SprLowpoly.obj.cleaner.gles"},{"children":[3,4,5,6,7,8,9,10],"name":"Object_2"},{"mesh":0,"name":"Object_3"},{"mesh":1,"name":"Object_4"},{"mesh":2,"name":"Object_5"},{"mesh":3,"name":"Object_6"},{"mesh":4,"name":"Object_7"},{"mesh":5,"name":"Object_8"},{"mesh":6,"name":"Object_9"},{"mesh":7,"name":"Object_10"}],"samplers":[{"magFilter":9729,"minFilter":9987,"wrapS":10497,"wrapT":10497}],"scene":0,"scenes":[{"name":"Sketchfab_Scene","nodes":[0]}],"textures":[{"sampler":0,"source":0},{"sampler":0,"source":1},{"sampler":0,"source":2}]}